<?xml version="1.0" standalone="no"?>
<!DOCTYPE svg PUBLIC "-//W3C//DTD SVG 20010904//EN"
 "http://www.w3.org/TR/2001/REC-SVG-20010904/DTD/svg10.dtd">
<svg version="1.0" xmlns="http://www.w3.org/2000/svg"
 width="340.000000pt" height="340.000000pt" viewBox="0 0 340.000000 340.000000"
 preserveAspectRatio="xMidYMid meet">
<metadata>
Created by potrace 1.14, written by Peter Selinger 2001-2017
</metadata>
<g transform="translate(0.000000,340.000000) scale(0.100000,-0.100000)"
fill="#000000" stroke="none">
<path d="M1217 2124 c-1 -1 -39 -5 -83 -8 -105 -9 -124 -12 -188 -37 -109 -40
-175 -96 -510 -429 l-329 -327 225 -1 224 -1 100 97 c374 362 388 372 508 393
50 8 251 12 673 13 l602 1 150 145 c82 79 147 147 145 150 -5 4 -1512 8 -1517
4z"/>
<path d="M2411 1725 l-404 -402 249 -1 249 -1 398 397 c218 218 397 399 397
402 0 3 -109 5 -243 6 l-242 1 -404 -402z"/>
<path d="M1307 1774 c-1 -2 -34 -4 -72 -5 -143 -5 -169 -22 -409 -259 l-189
-187 210 -1 210 0 64 62 c75 73 106 95 145 103 16 3 214 6 440 7 l410 1 132
134 c73 73 132 136 132 140 0 6 -1067 10 -1073 5z"/>
<path d="M2798 1484 c-37 -19 -51 -66 -33 -110 16 -38 45 -54 90 -47 38 6 62
28 70 63 7 30 -16 88 -38 95 -33 12 -65 12 -89 -1z m92 -24 c28 -28 27 -84 -2
-104 -51 -36 -118 -5 -118 54 0 17 9 39 20 50 11 11 33 20 50 20 17 0 39 -9
50 -20z"/>
<path d="M2807 1453 c-7 -16 -2 -78 8 -80 6 -2 10 1 10 6 0 20 14 21 25 2 6
-12 15 -21 21 -21 6 0 6 7 -1 19 -7 13 -7 22 0 26 18 11 11 43 -12 49 -31 8
-46 7 -51 -1z m50 -27 c-6 -19 -33 -18 -34 3 -1 14 3 17 18 14 11 -3 18 -11
16 -17z"/>
</g>
</svg>
